# xmcd
#
# Track frame offsets: 
#        150
#        15400
#        29349
#        46798
#        64565
#        81294
#        99916
#        115538
#        126126
#        144790
#        159665
#        177636
#
# Disc length: 2557 seconds
#
# Revision: 0
# Processed by: cddbd v1.5.2PL0 Copyright (c) Steve Scherf et al.
# Submitted via: ExactAudioCopy v0.95b3
#
DISCID=8b09fb0c
DTITLE=D-Sailors - Between the Devil and the Deep Blue Sea
DYEAR=2007
DGENRE=Punk Rock
TTITLE0=Leaving for Canada
TTITLE1=Bring them on
TTITLE2=Babylon will burn
TTITLE3=Bed Sheets
TTITLE4=Second Summer
TTITLE5=Catcher in the rye
TTITLE6=This is...
TTITLE7=Rotten days
TTITLE8=Dive
TTITLE9=Passion for driving
TTITLE10=Winterlove
TTITLE11=See you within
EXTD=
EXTT0=
EXTT1=
EXTT2=
EXTT3=
EXTT4=
EXTT5=
EXTT6=
EXTT7=
EXTT8=
EXTT9=
EXTT10=
EXTT11=
PLAYORDER=
